<svg width="94" height="81" viewBox="0 0 94 81" fill="none" xmlns="http://www.w3.org/2000/svg">
<mask id="path-1-inside-1_124_670" fill="white">
<path fill-rule="evenodd" clip-rule="evenodd" d="M42.2173 79.5657C45.1243 81.4781 48.8739 81.4781 51.7766 79.5657C61.0085 73.4981 81.1092 58.994 89.7693 42.7645C101.184 21.354 87.7789 0 70.0571 0C59.9565 0 53.8805 5.25483 50.5195 9.77077C50.1158 10.3239 49.5864 10.774 48.9745 11.0844C48.3627 11.3947 47.6858 11.5565 46.9991 11.5565C46.3124 11.5565 45.6355 11.3947 45.0237 11.0844C44.4118 10.774 43.8824 10.3239 43.4787 9.77077C40.1177 5.25483 34.0417 0 23.9411 0C6.21932 0 -7.18553 21.354 4.23325 42.7645C12.8846 58.994 32.9941 73.4981 42.2173 79.5657"/>
</mask>
<path d="M51.7766 79.5657L47.9319 73.716L47.9254 73.7203L51.7766 79.5657ZM89.7693 42.7645L95.9451 46.0599L95.9463 46.0576L89.7693 42.7645ZM50.5195 9.77077L44.904 5.59142L44.8845 5.61759L44.8653 5.64393L50.5195 9.77077ZM43.4787 9.77077L49.1329 5.64393L49.1137 5.61759L49.0942 5.59142L43.4787 9.77077ZM4.23325 42.7645L10.4104 39.4717L10.4097 39.4704L4.23325 42.7645ZM38.3701 85.4137C43.6102 88.8609 50.3866 88.8641 55.6277 85.4111L47.9254 73.7203C47.3611 74.0921 46.6384 74.0953 46.0644 73.7177L38.3701 85.4137ZM55.6212 85.4154C60.4016 82.2735 68.0271 76.9292 75.6211 70.2226C83.1358 63.5859 91.0407 55.251 95.9451 46.0599L83.5935 39.4691C79.8378 46.5075 73.3623 53.5394 66.3537 59.729C59.4242 65.8487 52.3835 70.7903 47.9319 73.716L55.6212 85.4154ZM95.9463 46.0576C109.293 21.0235 94.1961 -7 70.0571 -7V7C81.3617 7 93.0749 21.6845 83.5923 39.4714L95.9463 46.0576ZM70.0571 -7C57.1093 -7 49.1544 -0.119489 44.904 5.59142L56.1349 13.9501C58.6065 10.6291 62.8038 7 70.0571 7V-7ZM44.8653 5.64393C45.1136 5.30372 45.4372 5.02959 45.8078 4.84161L52.1412 17.3271C53.7355 16.5184 55.1179 15.344 56.1736 13.8976L44.8653 5.64393ZM45.8078 4.84161C46.1782 4.6537 46.5864 4.55651 46.9991 4.55651V18.5565C48.7852 18.5565 50.5471 18.1357 52.1412 17.3271L45.8078 4.84161ZM46.9991 4.55651C47.4119 4.55651 47.82 4.6537 48.1904 4.84161L41.857 17.3271C43.4511 18.1357 45.213 18.5565 46.9991 18.5565V4.55651ZM48.1904 4.84161C48.561 5.02958 48.8846 5.3037 49.1329 5.64393L37.8246 13.8976C38.8803 15.344 40.2627 16.5184 41.857 17.3271L48.1904 4.84161ZM49.0942 5.59142C44.8438 -0.119489 36.8889 -7 23.9411 -7V7C31.1944 7 35.3917 10.6291 37.8633 13.9501L49.0942 5.59142ZM23.9411 -7C-0.198116 -7 -15.2948 21.024 -1.94324 46.0586L10.4097 39.4704C0.923765 21.684 12.6367 7 23.9411 7V-7ZM-1.94391 46.0573C2.95659 55.2504 10.8627 63.5863 18.3771 70.2226C25.9711 76.9292 33.5963 82.2732 38.3701 85.4137L46.0645 73.7177C41.6151 70.7906 34.574 65.8487 27.6445 59.729C20.6356 53.5391 14.1613 46.5081 10.4104 39.4717L-1.94391 46.0573Z" fill="#E34348" mask="url(#path-1-inside-1_124_670)"/>
</svg>
