<svg width="492" height="326" viewBox="0 0 492 326" fill="none" xmlns="http://www.w3.org/2000/svg">
<rect width="492" height="326" fill="white"/>
<path d="M105.982 176V149.818H124.237V154.957H112.31V160.327H123.304V165.479H112.31V170.861H124.237V176H105.982ZM137.366 176.371C135.295 176.371 133.518 175.945 132.036 175.092C130.561 174.24 129.428 173.055 128.635 171.538C127.842 170.013 127.446 168.249 127.446 166.246C127.446 164.234 127.842 162.47 128.635 160.953C129.436 159.428 130.574 158.239 132.048 157.386C133.531 156.534 135.3 156.108 137.354 156.108C139.169 156.108 140.75 156.436 142.097 157.092C143.452 157.749 144.509 158.678 145.267 159.879C146.034 161.072 146.439 162.474 146.482 164.085H140.639C140.52 163.08 140.179 162.291 139.616 161.72C139.063 161.149 138.338 160.864 137.443 160.864C136.719 160.864 136.084 161.068 135.538 161.477C134.993 161.878 134.567 162.474 134.26 163.267C133.962 164.051 133.812 165.023 133.812 166.182C133.812 167.341 133.962 168.321 134.26 169.122C134.567 169.915 134.993 170.516 135.538 170.925C136.084 171.325 136.719 171.526 137.443 171.526C138.023 171.526 138.534 171.402 138.977 171.155C139.429 170.908 139.8 170.545 140.089 170.068C140.379 169.582 140.562 168.994 140.639 168.304H146.482C146.422 169.923 146.017 171.338 145.267 172.548C144.526 173.759 143.482 174.7 142.135 175.374C140.797 176.038 139.207 176.371 137.366 176.371ZM158.847 176.371C156.784 176.371 155.012 175.949 153.529 175.105C152.054 174.253 150.917 173.068 150.115 171.551C149.323 170.026 148.926 168.257 148.926 166.246C148.926 164.226 149.323 162.457 150.115 160.94C150.917 159.415 152.054 158.23 153.529 157.386C155.012 156.534 156.784 156.108 158.847 156.108C160.909 156.108 162.678 156.534 164.152 157.386C165.635 158.23 166.773 159.415 167.566 160.94C168.367 162.457 168.767 164.226 168.767 166.246C168.767 168.257 168.367 170.026 167.566 171.551C166.773 173.068 165.635 174.253 164.152 175.105C162.678 175.949 160.909 176.371 158.847 176.371ZM158.885 171.653C159.635 171.653 160.27 171.423 160.79 170.963C161.31 170.503 161.706 169.864 161.979 169.045C162.26 168.227 162.401 167.281 162.401 166.207C162.401 165.116 162.26 164.162 161.979 163.344C161.706 162.526 161.31 161.886 160.79 161.426C160.27 160.966 159.635 160.736 158.885 160.736C158.11 160.736 157.453 160.966 156.917 161.426C156.388 161.886 155.983 162.526 155.702 163.344C155.429 164.162 155.293 165.116 155.293 166.207C155.293 167.281 155.429 168.227 155.702 169.045C155.983 169.864 156.388 170.503 156.917 170.963C157.453 171.423 158.11 171.653 158.885 171.653ZM178.221 164.801V176H171.97V156.364H177.914V159.969H178.132C178.566 158.767 179.308 157.825 180.356 157.143C181.404 156.453 182.653 156.108 184.102 156.108C185.483 156.108 186.68 156.419 187.694 157.041C188.717 157.655 189.51 158.516 190.072 159.624C190.643 160.723 190.924 162.01 190.916 163.484V176H184.664V164.712C184.673 163.621 184.396 162.768 183.833 162.155C183.279 161.541 182.508 161.234 181.52 161.234C180.863 161.234 180.284 161.379 179.781 161.669C179.287 161.95 178.903 162.355 178.63 162.884C178.366 163.412 178.23 164.051 178.221 164.801ZM203.952 176.371C201.89 176.371 200.117 175.949 198.634 175.105C197.16 174.253 196.022 173.068 195.221 171.551C194.428 170.026 194.032 168.257 194.032 166.246C194.032 164.226 194.428 162.457 195.221 160.94C196.022 159.415 197.16 158.23 198.634 157.386C200.117 156.534 201.89 156.108 203.952 156.108C206.015 156.108 207.783 156.534 209.258 157.386C210.741 158.23 211.879 159.415 212.671 160.94C213.472 162.457 213.873 164.226 213.873 166.246C213.873 168.257 213.472 170.026 212.671 171.551C211.879 173.068 210.741 174.253 209.258 175.105C207.783 175.949 206.015 176.371 203.952 176.371ZM203.991 171.653C204.741 171.653 205.376 171.423 205.896 170.963C206.415 170.503 206.812 169.864 207.085 169.045C207.366 168.227 207.506 167.281 207.506 166.207C207.506 165.116 207.366 164.162 207.085 163.344C206.812 162.526 206.415 161.886 205.896 161.426C205.376 160.966 204.741 160.736 203.991 160.736C203.215 160.736 202.559 160.966 202.022 161.426C201.494 161.886 201.089 162.526 200.808 163.344C200.535 164.162 200.398 165.116 200.398 166.207C200.398 167.281 200.535 168.227 200.808 169.045C201.089 169.864 201.494 170.503 202.022 170.963C202.559 171.423 203.215 171.653 203.991 171.653ZM217.075 176V156.364H223.02V159.969H223.237C223.646 158.776 224.337 157.834 225.308 157.143C226.28 156.453 227.439 156.108 228.786 156.108C230.149 156.108 231.317 156.457 232.288 157.156C233.26 157.855 233.878 158.793 234.142 159.969H234.347C234.713 158.801 235.429 157.868 236.494 157.169C237.56 156.462 238.817 156.108 240.266 156.108C242.124 156.108 243.632 156.705 244.791 157.898C245.95 159.082 246.53 160.71 246.53 162.781V176H240.278V164.213C240.278 163.233 240.027 162.487 239.524 161.976C239.021 161.456 238.369 161.196 237.568 161.196C236.707 161.196 236.03 161.477 235.536 162.04C235.05 162.594 234.807 163.339 234.807 164.277V176H228.798V164.149C228.798 163.237 228.551 162.517 228.057 161.989C227.563 161.46 226.911 161.196 226.101 161.196C225.555 161.196 225.074 161.328 224.656 161.592C224.239 161.848 223.911 162.214 223.672 162.692C223.442 163.169 223.327 163.732 223.327 164.379V176H217.075ZM250.403 176V156.364H256.655V176H250.403ZM253.536 154.075C252.658 154.075 251.903 153.786 251.273 153.206C250.642 152.618 250.327 151.911 250.327 151.084C250.327 150.266 250.642 149.567 251.273 148.987C251.903 148.399 252.658 148.105 253.536 148.105C254.422 148.105 255.176 148.399 255.798 148.987C256.429 149.567 256.744 150.266 256.744 151.084C256.744 151.911 256.429 152.618 255.798 153.206C255.176 153.786 254.422 154.075 253.536 154.075ZM269.8 176.371C267.729 176.371 265.952 175.945 264.469 175.092C262.995 174.24 261.861 173.055 261.069 171.538C260.276 170.013 259.88 168.249 259.88 166.246C259.88 164.234 260.276 162.47 261.069 160.953C261.87 159.428 263.007 158.239 264.482 157.386C265.965 156.534 267.733 156.108 269.787 156.108C271.603 156.108 273.184 156.436 274.53 157.092C275.885 157.749 276.942 158.678 277.701 159.879C278.468 161.072 278.873 162.474 278.915 164.085H273.073C272.953 163.08 272.613 162.291 272.05 161.72C271.496 161.149 270.772 160.864 269.877 160.864C269.152 160.864 268.517 161.068 267.972 161.477C267.426 161.878 267 162.474 266.694 163.267C266.395 164.051 266.246 165.023 266.246 166.182C266.246 167.341 266.395 168.321 266.694 169.122C267 169.915 267.426 170.516 267.972 170.925C268.517 171.325 269.152 171.526 269.877 171.526C270.456 171.526 270.968 171.402 271.411 171.155C271.863 170.908 272.233 170.545 272.523 170.068C272.813 169.582 272.996 168.994 273.073 168.304H278.915C278.855 169.923 278.451 171.338 277.701 172.548C276.959 173.759 275.915 174.7 274.569 175.374C273.23 176.038 271.641 176.371 269.8 176.371Z" fill="black"/>
<path d="M312.131 149.818V176H306.762L296.343 160.889H296.177V176H289.849V149.818H295.295L305.599 164.903H305.816V149.818H312.131ZM325.289 176.371C323.235 176.371 321.463 175.966 319.971 175.156C318.488 174.338 317.346 173.175 316.545 171.666C315.752 170.149 315.356 168.347 315.356 166.259C315.356 164.23 315.757 162.457 316.558 160.94C317.359 159.415 318.488 158.23 319.946 157.386C321.403 156.534 323.12 156.108 325.098 156.108C326.495 156.108 327.774 156.325 328.933 156.76C330.092 157.195 331.093 157.838 331.937 158.69C332.781 159.543 333.437 160.595 333.906 161.848C334.375 163.092 334.609 164.52 334.609 166.131V167.69H317.542V164.06H328.792C328.784 163.395 328.626 162.803 328.319 162.283C328.012 161.763 327.591 161.358 327.054 161.068C326.525 160.77 325.916 160.621 325.225 160.621C324.527 160.621 323.9 160.778 323.346 161.094C322.792 161.401 322.353 161.822 322.029 162.359C321.706 162.888 321.535 163.489 321.518 164.162V167.857C321.518 168.658 321.676 169.361 321.991 169.966C322.306 170.562 322.754 171.027 323.333 171.359C323.913 171.692 324.603 171.858 325.404 171.858C325.958 171.858 326.461 171.781 326.913 171.628C327.365 171.474 327.752 171.249 328.076 170.95C328.4 170.652 328.643 170.286 328.805 169.851L334.545 170.017C334.306 171.304 333.782 172.425 332.973 173.379C332.172 174.325 331.119 175.062 329.815 175.591C328.511 176.111 327.002 176.371 325.289 176.371ZM341.26 176L336.146 156.364H342.423L345.07 168.943H345.236L348.074 156.364H354.197L357.112 168.854H357.278L359.848 156.364H366.125L360.999 176H354.312L351.244 164.558H351.027L347.959 176H341.26ZM385.777 162.359L380.037 162.513C379.978 162.104 379.816 161.741 379.551 161.426C379.287 161.102 378.942 160.851 378.516 160.672C378.098 160.484 377.613 160.391 377.059 160.391C376.334 160.391 375.716 160.536 375.205 160.825C374.702 161.115 374.455 161.507 374.463 162.001C374.455 162.385 374.608 162.717 374.924 162.999C375.248 163.28 375.823 163.506 376.65 163.676L380.434 164.392C382.394 164.767 383.851 165.389 384.806 166.259C385.769 167.128 386.255 168.278 386.263 169.71C386.255 171.057 385.854 172.229 385.061 173.226C384.277 174.223 383.203 174.999 381.84 175.553C380.476 176.098 378.917 176.371 377.161 176.371C374.357 176.371 372.145 175.795 370.526 174.645C368.915 173.486 367.995 171.935 367.765 169.991L373.939 169.838C374.076 170.554 374.429 171.099 375 171.474C375.571 171.849 376.3 172.037 377.186 172.037C377.988 172.037 378.64 171.888 379.142 171.589C379.645 171.291 379.901 170.895 379.909 170.401C379.901 169.957 379.705 169.604 379.321 169.339C378.938 169.067 378.337 168.854 377.519 168.7L374.093 168.048C372.124 167.69 370.658 167.03 369.695 166.067C368.732 165.095 368.255 163.859 368.263 162.359C368.255 161.047 368.604 159.926 369.311 158.997C370.019 158.06 371.025 157.344 372.328 156.849C373.632 156.355 375.171 156.108 376.944 156.108C379.603 156.108 381.699 156.666 383.233 157.783C384.767 158.891 385.615 160.416 385.777 162.359Z" fill="#E34348"/>
</svg>
