<svg width="94" height="81" viewBox="0 0 94 81" fill="none" xmlns="http://www.w3.org/2000/svg">
<path fill-rule="evenodd" clip-rule="evenodd" d="M42.2173 79.5657C45.1243 81.4781 48.8739 81.4781 51.7766 79.5657C61.0085 73.4981 81.1092 58.994 89.7693 42.7645C101.184 21.354 87.7789 0 70.0571 0C59.9565 0 53.8805 5.25483 50.5195 9.77077C50.1158 10.3239 49.5864 10.774 48.9745 11.0844C48.3627 11.3947 47.6858 11.5565 46.9991 11.5565C46.3124 11.5565 45.6355 11.3947 45.0237 11.0844C44.4118 10.774 43.8824 10.3239 43.4787 9.77077C40.1177 5.25483 34.0417 0 23.9411 0C6.21932 0 -7.18553 21.354 4.23325 42.7645C12.8846 58.994 32.9941 73.4981 42.2173 79.5657" fill="#E34348"/>
</svg>
